<svg width="18" height="20" viewBox="0 0 18 20" fill="none" xmlns="http://www.w3.org/2000/svg">
<g id="Abubakr__logo" clip-path="url(#clip0_13_24)">
<g id="Vector 14">
<mask id="path-1-outside-1_13_24" maskUnits="userSpaceOnUse" x="0.923828" y="-0.0223999" width="17" height="21" fill="black">
<rect fill="white" x="0.923828" y="-0.0223999" width="17" height="21"/>
<path d="M10.8221 12.7346C13.4318 12.837 12.6996 12.4365 13.6234 11.9559C14.0857 10.7542 15.0872 11.5049 15.645 11.9231C15.4888 11.807 14.585 11.3044 14.6423 11.3433C14.7357 11.4068 16.0049 12.1652 16.0294 12.1385L16.03 12.1379C18.4054 7.14922 -1.44551 -3.34809 5.63867 2.91462C10.8665 7.53621 4.53978 9.73083 3.16461 11.0393C3.10873 11.0993 2.94593 11.3254 2.89322 11.3879C2.89093 11.3912 2.89568 11.3806 2.85141 11.4534C2.84397 11.4656 2.6861 11.7291 2.68574 11.7296C2.68431 11.7316 2.68295 11.7335 2.68164 11.7353C2.66358 11.7602 2.65141 11.7743 2.64503 11.7804C2.63101 11.7936 2.64503 11.7676 2.68574 11.7296L2.68601 11.7292C3.38417 10.4403 4.23306 12.2867 4.23306 12.2867C4.25535 12.3131 4.27779 12.3388 4.30039 12.3638C6.91698 14.6041 7.34833 12.5983 10.8221 12.7346Z"/>
<path fill-rule="evenodd" clip-rule="evenodd" d="M2.66186 11.7579C2.66545 11.7514 2.83119 11.4776 2.85141 11.4534C3.01633 11.2559 3.5491 10.8782 4.23306 12.2867C4.23306 12.2867 3.38417 10.4403 2.68601 11.7292L2.68574 11.7296L2.68164 11.7353C2.66358 11.7602 2.65141 11.7743 2.64503 11.7804C2.65064 11.7727 2.65625 11.7653 2.66186 11.7579ZM4.30039 12.3638C4.27779 12.3388 4.25535 12.3131 4.23306 12.2867C4.26386 12.3078 4.2859 12.3337 4.30039 12.3638Z"/>
<path fill-rule="evenodd" clip-rule="evenodd" d="M16.03 12.1379L16.0294 12.1385C16.0298 12.1365 16.03 12.1363 16.03 12.1379Z"/>
<path fill-rule="evenodd" clip-rule="evenodd" d="M2.68601 11.7292C2.68634 11.7288 2.8441 11.4654 2.85141 11.4534C3.01633 11.2559 3.5491 10.8782 4.23306 12.2867C4.23306 12.2867 3.38417 10.4403 2.68601 11.7292Z"/>
<path fill-rule="evenodd" clip-rule="evenodd" d="M13.6234 11.9559C13.7755 11.5692 14.0919 11.173 14.6423 11.3433C14.585 11.3044 15.4888 11.807 15.645 11.9231C15.0872 11.5049 14.0857 10.7542 13.6234 11.9559Z"/>
<path d="M13.6234 11.9559C13.6234 11.9559 14.03 13.9987 13.1547 15.3204C12.2794 16.6422 14.6622 20.0066 14.1428 18.757C13.6234 17.5075 14.0538 15.9212 14.9112 15.3204C15.7462 14.7353 16.0159 12.2128 16.0294 12.1385C16.0049 12.1652 14.7357 11.4068 14.6423 11.3433C14.0919 11.173 13.7755 11.5692 13.6234 11.9559Z"/>
<path d="M3.66694 18.757C3.29262 19.7183 5.28063 16.7476 4.18638 15.3204C3.15894 13.9804 5.03089 13.3151 4.30039 12.3638C4.27779 12.3388 4.25535 12.3131 4.23306 12.2867C3.5491 10.8782 3.01633 11.2559 2.85141 11.4534C2.8441 11.4654 2.68634 11.7288 2.68601 11.7292L2.68574 11.7296L2.68164 11.7353C2.66358 11.7602 2.65141 11.7743 2.64503 11.7804C2.04161 12.6024 1.7075 14.9693 2.08081 15.3204C2.46409 15.6809 4.04127 17.7957 3.66694 18.757Z"/>
</mask>
<path d="M10.8221 12.7346C13.4318 12.837 12.6996 12.4365 13.6234 11.9559C14.0857 10.7542 15.0872 11.5049 15.645 11.9231C15.4888 11.807 14.585 11.3044 14.6423 11.3433C14.7357 11.4068 16.0049 12.1652 16.0294 12.1385L16.03 12.1379C18.4054 7.14922 -1.44551 -3.34809 5.63867 2.91462C10.8665 7.53621 4.53978 9.73083 3.16461 11.0393C3.10873 11.0993 2.94593 11.3254 2.89322 11.3879C2.89093 11.3912 2.89568 11.3806 2.85141 11.4534C2.84397 11.4656 2.6861 11.7291 2.68574 11.7296C2.68431 11.7316 2.68295 11.7335 2.68164 11.7353C2.66358 11.7602 2.65141 11.7743 2.64503 11.7804C2.63101 11.7936 2.64503 11.7676 2.68574 11.7296L2.68601 11.7292C3.38417 10.4403 4.23306 12.2867 4.23306 12.2867C4.25535 12.3131 4.27779 12.3388 4.30039 12.3638C6.91698 14.6041 7.34833 12.5983 10.8221 12.7346Z" fill="url(#paint0_radial_13_24)"/>
<path d="M10.8221 12.7346C13.4318 12.837 12.6996 12.4365 13.6234 11.9559C14.0857 10.7542 15.0872 11.5049 15.645 11.9231C15.4888 11.807 14.585 11.3044 14.6423 11.3433C14.7357 11.4068 16.0049 12.1652 16.0294 12.1385L16.03 12.1379C18.4054 7.14922 -1.44551 -3.34809 5.63867 2.91462C10.8665 7.53621 4.53978 9.73083 3.16461 11.0393C3.10873 11.0993 2.94593 11.3254 2.89322 11.3879C2.89093 11.3912 2.89568 11.3806 2.85141 11.4534C2.84397 11.4656 2.6861 11.7291 2.68574 11.7296C2.68431 11.7316 2.68295 11.7335 2.68164 11.7353C2.66358 11.7602 2.65141 11.7743 2.64503 11.7804C2.63101 11.7936 2.64503 11.7676 2.68574 11.7296L2.68601 11.7292C3.38417 10.4403 4.23306 12.2867 4.23306 12.2867C4.25535 12.3131 4.27779 12.3388 4.30039 12.3638C6.91698 14.6041 7.34833 12.5983 10.8221 12.7346Z" fill="#0A1A3D" fill-opacity="0.2"/>
<path fill-rule="evenodd" clip-rule="evenodd" d="M2.66186 11.7579C2.66545 11.7514 2.83119 11.4776 2.85141 11.4534C3.01633 11.2559 3.5491 10.8782 4.23306 12.2867C4.23306 12.2867 3.38417 10.4403 2.68601 11.7292L2.68574 11.7296L2.68164 11.7353C2.66358 11.7602 2.65141 11.7743 2.64503 11.7804C2.65064 11.7727 2.65625 11.7653 2.66186 11.7579ZM4.30039 12.3638C4.27779 12.3388 4.25535 12.3131 4.23306 12.2867C4.26386 12.3078 4.2859 12.3337 4.30039 12.3638Z" fill="url(#paint1_radial_13_24)"/>
<path fill-rule="evenodd" clip-rule="evenodd" d="M2.66186 11.7579C2.66545 11.7514 2.83119 11.4776 2.85141 11.4534C3.01633 11.2559 3.5491 10.8782 4.23306 12.2867C4.23306 12.2867 3.38417 10.4403 2.68601 11.7292L2.68574 11.7296L2.68164 11.7353C2.66358 11.7602 2.65141 11.7743 2.64503 11.7804C2.65064 11.7727 2.65625 11.7653 2.66186 11.7579ZM4.30039 12.3638C4.27779 12.3388 4.25535 12.3131 4.23306 12.2867C4.26386 12.3078 4.2859 12.3337 4.30039 12.3638Z" fill="#0A1A3D" fill-opacity="0.2"/>
<path fill-rule="evenodd" clip-rule="evenodd" d="M16.03 12.1379L16.0294 12.1385C16.0298 12.1365 16.03 12.1363 16.03 12.1379Z" fill="url(#paint2_radial_13_24)"/>
<path fill-rule="evenodd" clip-rule="evenodd" d="M16.03 12.1379L16.0294 12.1385C16.0298 12.1365 16.03 12.1363 16.03 12.1379Z" fill="#0A1A3D" fill-opacity="0.2"/>
<path fill-rule="evenodd" clip-rule="evenodd" d="M2.68601 11.7292C2.68634 11.7288 2.8441 11.4654 2.85141 11.4534C3.01633 11.2559 3.5491 10.8782 4.23306 12.2867C4.23306 12.2867 3.38417 10.4403 2.68601 11.7292Z" fill="url(#paint3_radial_13_24)"/>
<path fill-rule="evenodd" clip-rule="evenodd" d="M2.68601 11.7292C2.68634 11.7288 2.8441 11.4654 2.85141 11.4534C3.01633 11.2559 3.5491 10.8782 4.23306 12.2867C4.23306 12.2867 3.38417 10.4403 2.68601 11.7292Z" fill="#0A1A3D" fill-opacity="0.2"/>
<path fill-rule="evenodd" clip-rule="evenodd" d="M13.6234 11.9559C13.7755 11.5692 14.0919 11.173 14.6423 11.3433C14.585 11.3044 15.4888 11.807 15.645 11.9231C15.0872 11.5049 14.0857 10.7542 13.6234 11.9559Z" fill="url(#paint4_radial_13_24)"/>
<path fill-rule="evenodd" clip-rule="evenodd" d="M13.6234 11.9559C13.7755 11.5692 14.0919 11.173 14.6423 11.3433C14.585 11.3044 15.4888 11.807 15.645 11.9231C15.0872 11.5049 14.0857 10.7542 13.6234 11.9559Z" fill="#0A1A3D" fill-opacity="0.2"/>
<path d="M13.6234 11.9559C13.6234 11.9559 14.03 13.9987 13.1547 15.3204C12.2794 16.6422 14.6622 20.0066 14.1428 18.757C13.6234 17.5075 14.0538 15.9212 14.9112 15.3204C15.7462 14.7353 16.0159 12.2128 16.0294 12.1385C16.0049 12.1652 14.7357 11.4068 14.6423 11.3433C14.0919 11.173 13.7755 11.5692 13.6234 11.9559Z" fill="url(#paint5_radial_13_24)"/>
<path d="M13.6234 11.9559C13.6234 11.9559 14.03 13.9987 13.1547 15.3204C12.2794 16.6422 14.6622 20.0066 14.1428 18.757C13.6234 17.5075 14.0538 15.9212 14.9112 15.3204C15.7462 14.7353 16.0159 12.2128 16.0294 12.1385C16.0049 12.1652 14.7357 11.4068 14.6423 11.3433C14.0919 11.173 13.7755 11.5692 13.6234 11.9559Z" fill="#0A1A3D" fill-opacity="0.2"/>
<path d="M3.66694 18.757C3.29262 19.7183 5.28063 16.7476 4.18638 15.3204C3.15894 13.9804 5.03089 13.3151 4.30039 12.3638C4.27779 12.3388 4.25535 12.3131 4.23306 12.2867C3.5491 10.8782 3.01633 11.2559 2.85141 11.4534C2.8441 11.4654 2.68634 11.7288 2.68601 11.7292L2.68574 11.7296L2.68164 11.7353C2.66358 11.7602 2.65141 11.7743 2.64503 11.7804C2.04161 12.6024 1.7075 14.9693 2.08081 15.3204C2.46409 15.6809 4.04127 17.7957 3.66694 18.757Z" fill="url(#paint6_radial_13_24)"/>
<path d="M3.66694 18.757C3.29262 19.7183 5.28063 16.7476 4.18638 15.3204C3.15894 13.9804 5.03089 13.3151 4.30039 12.3638C4.27779 12.3388 4.25535 12.3131 4.23306 12.2867C3.5491 10.8782 3.01633 11.2559 2.85141 11.4534C2.8441 11.4654 2.68634 11.7288 2.68601 11.7292L2.68574 11.7296L2.68164 11.7353C2.66358 11.7602 2.65141 11.7743 2.64503 11.7804C2.04161 12.6024 1.7075 14.9693 2.08081 15.3204C2.46409 15.6809 4.04127 17.7957 3.66694 18.757Z" fill="#0A1A3D" fill-opacity="0.2"/>
<path d="M5.96984 2.54002C5.76295 2.35712 5.44697 2.37657 5.26407 2.58346C5.08117 2.79035 5.10062 3.10633 5.30751 3.28923L5.96984 2.54002ZM13.6234 11.9559L13.1567 11.7764C13.0578 12.0334 13.1854 12.322 13.4421 12.4219C13.6987 12.5218 13.9878 12.3953 14.0887 12.139L13.6234 11.9559ZM4.23306 12.2867L3.78329 12.5051C3.80135 12.5423 3.82395 12.5771 3.85057 12.6087L4.23306 12.2867ZM16.03 12.1379L16.4011 12.4729C16.5029 12.3602 16.5479 12.2074 16.5234 12.0575C16.499 11.9076 16.4078 11.777 16.2756 11.7024L16.03 12.1379ZM2.66186 11.7579L2.26539 11.4533C2.24982 11.4736 2.23582 11.495 2.22353 11.5174L2.66186 11.7579ZM2.68601 11.7292L3.09173 12.0214L3.09301 12.0196L2.68601 11.7292ZM2.68164 11.7353L3.08629 12.029L3.08736 12.0275L2.68164 11.7353ZM2.30169 11.4169C2.10095 11.6065 2.09194 11.923 2.28156 12.1237C2.47119 12.3244 2.78764 12.3335 2.98838 12.1438L2.30169 11.4169ZM3.92968 12.6993C4.11498 12.9041 4.43117 12.9198 4.63591 12.7345C4.84064 12.5492 4.8564 12.233 4.6711 12.0283L3.92968 12.6993ZM16.0294 12.1385L16.3973 12.4771L16.4006 12.4735L16.0294 12.1385ZM2.68574 11.7296L2.28003 11.4374L2.28003 11.4374L2.68574 11.7296ZM2.85141 11.4534L2.46759 11.133C2.45165 11.1521 2.43715 11.1723 2.42422 11.1936L2.85141 11.4534ZM15.645 11.9231L15.3468 12.3244C15.5681 12.4889 15.8808 12.4431 16.0457 12.2221C16.2106 12.0012 16.1655 11.6884 15.9449 11.523L15.645 11.9231ZM5.30751 3.28923C6.63089 4.45916 7.09331 5.40408 7.14822 6.14206C7.20244 6.87067 6.86852 7.52862 6.28739 8.15254C5.70307 8.77987 4.92139 9.31581 4.1925 9.79212C3.83744 10.0241 3.48536 10.2483 3.20008 10.4511C2.92702 10.6453 2.64862 10.8645 2.48305 11.102L3.30339 11.6739C3.35877 11.5944 3.50321 11.4626 3.77954 11.2661C4.04363 11.0784 4.36747 10.8724 4.73954 10.6292C5.4649 10.1552 6.34228 9.5608 7.01914 8.83411C7.69918 8.10401 8.22854 7.18426 8.14547 6.06785C8.06309 4.96081 7.38762 3.7934 5.96984 2.54002L5.30751 3.28923ZM4.23306 12.2867C4.68734 12.0778 4.68728 12.0776 4.68722 12.0775C4.68719 12.0774 4.68712 12.0773 4.68707 12.0772C4.68696 12.077 4.68684 12.0767 4.68671 12.0764C4.68645 12.0758 4.68613 12.0752 4.68576 12.0744C4.68502 12.0728 4.68407 12.0707 4.68291 12.0683C4.68059 12.0634 4.67744 12.0567 4.67348 12.0485C4.66557 12.0322 4.6544 12.0095 4.64022 11.9818C4.61196 11.9267 4.57119 11.8505 4.51984 11.7637C4.42034 11.5955 4.26773 11.3645 4.07547 11.1716C3.89911 10.9947 3.59544 10.7549 3.19936 10.7731C2.76446 10.7931 2.45596 11.1041 2.24637 11.4911L3.12565 11.9674C3.26514 11.7099 3.32456 11.7684 3.24519 11.772C3.20463 11.7739 3.24408 11.7541 3.36722 11.8776C3.47445 11.9852 3.5777 12.1352 3.65919 12.2729C3.69833 12.3391 3.72934 12.397 3.75022 12.4378C3.76062 12.4581 3.76837 12.4739 3.77324 12.4839C3.77566 12.4889 3.77736 12.4925 3.7783 12.4945C3.77877 12.4955 3.77904 12.4961 3.77912 12.4963C3.77916 12.4964 3.77916 12.4963 3.7791 12.4962C3.77907 12.4962 3.77903 12.4961 3.77898 12.496C3.77895 12.4959 3.7789 12.4958 3.77889 12.4958C3.77883 12.4956 3.77878 12.4955 4.23306 12.2867ZM2.277 11.4416C2.27255 11.4477 2.27124 11.4492 2.27293 11.4471C2.2738 11.446 2.27624 11.4431 2.28009 11.4389C2.28344 11.4352 2.29089 11.4271 2.30169 11.4169L2.98838 12.1438C3.03025 12.1043 3.06481 12.0586 3.08629 12.029L2.277 11.4416ZM4.6711 12.0283C4.6526 12.0078 4.63408 11.9866 4.61555 11.9646L3.85057 12.6087C3.87661 12.6396 3.90298 12.6698 3.92968 12.6993L4.6711 12.0283ZM2.22353 11.5174C2.21992 11.524 2.20329 11.5539 2.18905 11.5946C2.18462 11.6072 2.16203 11.6697 2.16082 11.7533C2.16022 11.7954 2.1638 11.8894 2.21792 11.9927C2.28323 12.1174 2.40095 12.2133 2.54665 12.2475C2.6678 12.2759 2.76569 12.2517 2.80909 12.2383C2.85782 12.2232 2.89381 12.2038 2.91282 12.1927C2.95097 12.1705 2.97755 12.1481 2.9875 12.1396C3.01051 12.1198 3.02686 12.1021 3.03251 12.0959C3.05613 12.0701 3.07597 12.0432 3.08607 12.0293L2.27721 11.4413C2.2699 11.4513 2.27794 11.4392 2.29507 11.4205C2.29909 11.4161 2.31415 11.3997 2.33619 11.3808C2.34566 11.3726 2.37184 11.3505 2.40966 11.3285C2.42852 11.3175 2.46437 11.2982 2.51298 11.2831C2.55626 11.2697 2.65406 11.2455 2.77513 11.2739C2.92074 11.3081 3.03841 11.404 3.10368 11.5286C3.15776 11.6318 3.16132 11.7257 3.16072 11.7677C3.15952 11.851 3.13701 11.9132 3.13275 11.9254C3.11884 11.9651 3.10285 11.9937 3.1002 11.9985L2.22353 11.5174ZM3.05833 12.0626C3.06942 12.0482 3.07786 12.0354 3.07852 12.0345C3.08138 12.0302 3.08392 12.0263 3.08571 12.0235C3.08941 12.0178 3.09342 12.0115 3.09719 12.0055C3.10492 11.9933 3.11477 11.9775 3.12559 11.9601C3.14732 11.9252 3.17535 11.8798 3.20273 11.8356C3.23042 11.7908 3.25747 11.7471 3.27819 11.7139C3.28864 11.6972 3.29673 11.6844 3.30217 11.6758C3.30502 11.6714 3.30613 11.6697 3.30603 11.6698C3.30592 11.67 3.30557 11.6705 3.30502 11.6713C3.30451 11.6721 3.30352 11.6735 3.30219 11.6755C3.30099 11.6772 3.29859 11.6806 3.29537 11.685C3.29313 11.688 3.28577 11.698 3.2754 11.7103L2.51104 11.0655C2.49393 11.0858 2.48145 11.1042 2.48113 11.1046C2.47731 11.1101 2.47406 11.115 2.47197 11.1182C2.46762 11.1247 2.46312 11.1317 2.45919 11.1379C2.45107 11.1506 2.44092 11.1668 2.43001 11.1842C2.408 11.2195 2.37984 11.2649 2.35233 11.3094C2.3245 11.3544 2.29732 11.3984 2.27634 11.4321C2.2658 11.4491 2.25742 11.4625 2.25159 11.4717C2.24859 11.4765 2.24699 11.479 2.24644 11.4798C2.24048 11.489 2.2511 11.4719 2.26539 11.4533L3.05833 12.0626ZM15.6588 11.8029L15.6582 11.8035L16.4006 12.4735L16.4011 12.4729L15.6588 11.8029ZM2.2803 11.437L2.28003 11.4374L3.09146 12.0218L3.09172 12.0214L2.2803 11.437ZM2.28003 11.4374L2.27593 11.4431L3.08736 12.0275L3.09146 12.0218L2.28003 11.4374ZM3.09301 12.0196C3.09889 12.0112 3.1064 11.9999 3.10818 11.9971C3.10906 11.9957 3.11044 11.9935 3.11096 11.9927C3.11187 11.9912 3.11257 11.9901 3.11279 11.9897C3.11334 11.9888 3.11378 11.9881 3.11392 11.9879C3.11429 11.9872 3.11463 11.9867 3.11484 11.9863C3.1153 11.9856 3.11587 11.9846 3.11648 11.9836C3.11773 11.9815 3.1195 11.9786 3.12169 11.9749C3.12609 11.9676 3.13234 11.9572 3.13981 11.9447C3.15477 11.9197 3.17477 11.8864 3.19495 11.8527C3.21515 11.819 3.23554 11.785 3.25133 11.7587C3.25923 11.7455 3.26594 11.7343 3.27089 11.726C3.2764 11.7169 3.27864 11.7132 3.27859 11.7132L2.42422 11.1936C2.41945 11.2014 2.37667 11.2728 2.33723 11.3386C2.31701 11.3723 2.29706 11.4056 2.28211 11.4305C2.27464 11.443 2.26845 11.4533 2.26413 11.4605C2.26196 11.4642 2.2603 11.4669 2.25921 11.4687C2.25864 11.4697 2.25831 11.4702 2.25815 11.4705C2.25804 11.4707 2.25815 11.4705 2.25836 11.4702C2.25842 11.4701 2.2588 11.4694 2.25931 11.4686C2.2595 11.4683 2.26019 11.4672 2.26108 11.4657C2.26159 11.4649 2.26297 11.4627 2.26384 11.4613C2.26562 11.4585 2.27313 11.4472 2.27901 11.4388L3.09301 12.0196ZM3.23523 11.7738C3.24574 11.7612 3.25734 11.7528 3.26113 11.751C3.26119 11.751 3.26009 11.7515 3.25785 11.7522C3.25556 11.7529 3.25237 11.7537 3.24846 11.7543C3.24449 11.7548 3.24061 11.755 3.23716 11.7548C3.23369 11.7546 3.23181 11.7542 3.23183 11.7542C3.23771 11.7556 3.45335 11.8257 3.78329 12.5051L4.68283 12.0682C4.32881 11.3392 3.93609 10.8939 3.46336 10.7814C2.94758 10.6586 2.59609 10.979 2.46759 11.133L3.23523 11.7738ZM3.23523 11.7738C3.25642 11.7485 3.27693 11.7229 3.29453 11.6984C3.30311 11.6864 3.31593 11.6679 3.32898 11.6453C3.33563 11.6338 3.34493 11.6168 3.35437 11.5956C3.36291 11.5765 3.37761 11.5408 3.38765 11.4938C3.39287 11.4694 3.39817 11.4359 3.39876 11.3958C3.39935 11.3557 3.39535 11.3021 3.37694 11.2418C3.3579 11.1794 3.32427 11.1131 3.27048 11.0533C3.21667 10.9934 3.15428 10.9528 3.09416 10.9271C3.03605 10.9024 2.98308 10.8928 2.94347 10.8891C2.90377 10.8855 2.87026 10.8872 2.84621 10.8896C2.80017 10.8943 2.7649 10.9045 2.74888 10.9094C2.73093 10.9149 2.71715 10.9203 2.71345 10.9217C2.71271 10.922 2.7084 10.9237 2.71145 10.9225C2.71185 10.9224 2.71735 10.9202 2.72441 10.9177C2.72959 10.9158 2.74825 10.9091 2.77292 10.9029C2.78556 10.8998 2.80797 10.8947 2.83643 10.8915C2.85113 10.8898 2.87067 10.8882 2.89371 10.8882C2.91631 10.8883 2.94745 10.8898 2.98384 10.8965C3.05175 10.9091 3.1833 10.9489 3.28553 11.0784C3.33617 11.1425 3.36672 11.2133 3.38162 11.2816C3.39597 11.3474 3.39466 11.405 3.38955 11.4477C3.38444 11.4903 3.37471 11.525 3.36628 11.5497C3.35771 11.5748 3.34845 11.5954 3.34094 11.6105C3.3264 11.6398 3.31191 11.6616 3.30339 11.6739L2.48305 11.102C2.47828 11.1088 2.47257 11.1174 2.46644 11.1274C2.46038 11.1373 2.453 11.1502 2.44534 11.1656C2.43781 11.1808 2.42854 11.2014 2.41995 11.2265C2.41152 11.2512 2.40177 11.286 2.39666 11.3286C2.39155 11.3713 2.39023 11.4289 2.40459 11.4948C2.41185 11.528 2.42301 11.5629 2.43924 11.598C2.45553 11.6332 2.47607 11.6669 2.5007 11.6981C2.52529 11.7292 2.55248 11.756 2.58084 11.7787C2.60907 11.8013 2.6375 11.819 2.66447 11.8329C2.71754 11.8602 2.76636 11.8733 2.8025 11.88C2.83893 11.8867 2.87009 11.8882 2.89272 11.8882C2.9158 11.8883 2.93537 11.8867 2.95011 11.885C2.96508 11.8833 2.9779 11.8811 2.98791 11.8792C2.99805 11.8773 3.00682 11.8752 3.01388 11.8735C3.02762 11.8701 3.0387 11.8667 3.04576 11.8644C3.05313 11.8621 3.05913 11.86 3.06309 11.8586C3.07043 11.8559 3.07624 11.8536 3.07697 11.8533C3.0775 11.8531 3.0784 11.8528 3.07791 11.853C3.07778 11.853 3.07703 11.8533 3.07604 11.8537C3.0741 11.8544 3.07005 11.856 3.06484 11.8579C3.05964 11.8598 3.05215 11.8624 3.04301 11.8652C3.03399 11.868 3.02166 11.8715 3.00683 11.8748C2.99225 11.8781 2.9722 11.882 2.94809 11.8844C2.92441 11.8868 2.89127 11.8885 2.85191 11.8849C2.81263 11.8813 2.75997 11.8717 2.70214 11.8471C2.67285 11.8346 2.6423 11.8183 2.612 11.7971C2.58156 11.7759 2.55272 11.7507 2.52653 11.7215C2.50035 11.6923 2.4784 11.661 2.46054 11.6285C2.44276 11.5962 2.42981 11.5642 2.42054 11.5338C2.40223 11.4739 2.39829 11.4206 2.39887 11.3811C2.39945 11.3414 2.40468 11.3084 2.40976 11.2847C2.41494 11.2605 2.42113 11.2404 2.42634 11.2255C2.43164 11.2103 2.43693 11.1976 2.44133 11.1878C2.44989 11.1686 2.45795 11.154 2.46296 11.1453C2.46826 11.1361 2.47276 11.1291 2.47561 11.1248C2.47856 11.1203 2.48082 11.1171 2.48201 11.1154C2.48426 11.1123 2.48456 11.1121 2.48172 11.1157C2.47905 11.119 2.47454 11.1246 2.46759 11.133L3.23523 11.7738ZM14.0887 12.139C14.1473 11.99 14.2202 11.8886 14.2849 11.8397C14.3126 11.8187 14.3362 11.8093 14.3589 11.8053C14.3814 11.8013 14.4238 11.7991 14.4945 11.821L14.7901 10.8657C14.3609 10.7329 13.9771 10.819 13.6821 11.0418C13.413 11.2451 13.2516 11.5351 13.1581 11.7729L14.0887 12.139ZM14.9234 10.9298C14.9255 10.9313 14.9381 10.9398 14.9536 10.9522C14.9594 10.9569 14.9808 10.974 15.0048 10.9997C15.0156 11.0112 15.0425 11.0407 15.0685 11.0841C15.0815 11.1058 15.1661 11.2426 15.1315 11.4314C15.0825 11.6988 14.8649 11.8006 14.7598 11.8266C14.6692 11.849 14.5956 11.8396 14.5764 11.8372C14.5254 11.8306 14.4871 11.8173 14.4809 11.8152C14.4576 11.8074 14.4403 11.7995 14.4383 11.7986C14.4252 11.7927 14.4183 11.7888 14.4304 11.7951C14.4454 11.803 14.4731 11.818 14.5121 11.8394C14.5889 11.8816 14.6993 11.9432 14.8168 12.0099C14.9344 12.0767 15.0572 12.1474 15.1591 12.208C15.2101 12.2383 15.2544 12.2651 15.2893 12.287C15.3068 12.2979 15.3208 12.3069 15.3315 12.314C15.343 12.3216 15.3473 12.3248 15.3468 12.3244L15.9432 11.5217C15.8339 11.4405 15.5341 11.2672 15.3105 11.1403C15.1897 11.0717 15.0751 11.0077 14.9936 10.9629C14.9535 10.9409 14.9188 10.9221 14.8948 10.9095C14.8873 10.9056 14.8667 10.8947 14.8466 10.8857C14.8428 10.884 14.8242 10.8756 14.8 10.8675C14.7933 10.8652 14.7546 10.8518 14.7034 10.8453C14.6841 10.8428 14.6105 10.8334 14.5198 10.8558C14.4146 10.8818 14.1969 10.9837 14.1479 11.2511C14.1133 11.44 14.1979 11.5768 14.211 11.5986C14.2371 11.6421 14.264 11.6716 14.275 11.6833C14.2992 11.7092 14.3209 11.7266 14.3271 11.7316C14.3434 11.7448 14.3574 11.7542 14.3612 11.7568L14.9234 10.9298ZM15.9449 11.523C15.6893 11.3314 15.213 10.9641 14.7139 10.8456C14.4446 10.7816 14.1229 10.7777 13.8151 10.9468C13.511 11.1138 13.2988 11.407 13.1567 11.7764L14.09 12.1355C14.1791 11.904 14.2655 11.8403 14.2966 11.8232C14.324 11.8081 14.3743 11.7927 14.4829 11.8185C14.7396 11.8795 15.0429 12.0966 15.3451 12.3231L15.9449 11.523ZM15.6615 11.7999C15.7991 11.6504 15.969 11.6411 16.0075 11.6396C16.0654 11.6373 16.1098 11.646 16.1261 11.6494C16.1626 11.657 16.1879 11.6671 16.1904 11.668C16.2011 11.6722 16.2023 11.6733 16.1872 11.6659C16.1608 11.6529 16.1172 11.6299 16.0569 11.5966C15.9386 11.5314 15.779 11.4396 15.6141 11.3431C15.4499 11.2471 15.2834 11.1482 15.1525 11.0695C15.087 11.0302 15.031 10.9962 14.9889 10.9705C14.9417 10.9416 14.9231 10.9296 14.9234 10.9299L14.3612 11.7568C14.4255 11.8005 14.7844 12.0163 15.1093 12.2063C15.2764 12.3041 15.4445 12.4009 15.574 12.4723C15.6376 12.5074 15.6979 12.5396 15.746 12.5633C15.7681 12.5742 15.7991 12.589 15.8312 12.6013C15.8444 12.6064 15.8783 12.6192 15.921 12.6281C15.9404 12.6322 15.9873 12.6412 16.0472 12.6388C16.0877 12.6372 16.259 12.6274 16.3973 12.4771L15.6615 11.7999ZM14.4945 11.821C14.4566 11.8093 14.4326 11.7959 14.4516 11.8052C14.4587 11.8088 14.4716 11.8153 14.4911 11.8258C14.5297 11.8464 14.5831 11.876 14.648 11.9127C14.7773 11.9856 14.9431 12.0813 15.1086 12.1776C15.431 12.3652 15.7676 12.564 15.7843 12.5734L16.2756 11.7024C16.2775 11.7035 16.2616 11.6942 16.2198 11.6696C16.1823 11.6475 16.13 11.6167 16.0677 11.5801C15.9432 11.507 15.7784 11.4103 15.6115 11.3132C15.4449 11.2163 15.2746 11.118 15.1394 11.0418C15.0722 11.0038 15.0113 10.97 14.9629 10.9441C14.939 10.9313 14.9151 10.9188 14.8937 10.9083C14.8841 10.9035 14.8394 10.8809 14.7901 10.8657L14.4945 11.821ZM5.63867 2.91462L6.30101 2.16541L5.63867 2.91462ZM10.8221 12.7346L10.8613 11.7354L10.8221 12.7346ZM3.16461 11.0393L2.4753 10.3148C2.46059 10.3288 2.44631 10.3432 2.43248 10.3581L3.16461 11.0393ZM13.6234 11.9559L14.6041 11.7607C14.5427 11.4521 14.3396 11.1904 14.0559 11.0543C13.7722 10.9182 13.441 10.9236 13.1618 11.0688L13.6234 11.9559ZM2.89322 11.3879L2.12886 10.7431C2.1091 10.7666 2.09042 10.7909 2.07289 10.816L2.89322 11.3879ZM4.79985 11.4628C4.34484 11.1498 3.72223 11.2649 3.4092 11.7199C3.09617 12.1749 3.21126 12.7975 3.66627 13.1105L4.79985 11.4628ZM4.18638 15.3204L3.39279 15.9289H3.39279L4.18638 15.3204ZM2.08081 15.3204L2.76593 14.592L2.08081 15.3204ZM14.9112 15.3204L15.4851 16.1394L14.9112 15.3204ZM16.03 12.1379H15.03C15.03 12.6053 15.3537 13.0103 15.8096 13.1133C16.2655 13.2163 16.7319 12.9898 16.9328 12.5678L16.03 12.1379ZM2.66186 11.7579L3.4548 12.3673C3.48595 12.3267 3.51395 12.2838 3.53854 12.239L2.66186 11.7579ZM1.87278 11.1473C1.54804 11.594 1.64692 12.2194 2.09364 12.5441C2.54036 12.8689 3.16576 12.77 3.4905 12.3233L1.87278 11.1473ZM2.64503 11.7804L3.45117 12.3721L3.45117 12.3721L2.64503 11.7804ZM4.30039 12.3638L3.39907 12.797C3.42897 12.8592 3.46522 12.9181 3.50725 12.9729L4.30039 12.3638ZM16.0294 12.1385L17.0132 12.3178L17.0132 12.3176L16.0294 12.1385ZM4.97634 3.66383C6.19793 4.74377 6.58612 5.54708 6.6603 6.08614C6.72917 6.58668 6.55309 7.05901 6.11689 7.57047C5.66624 8.09887 5.01453 8.57503 4.31832 9.03133C4.04031 9.21355 3.57846 9.50504 3.32941 9.66938C3.03361 9.86456 2.71772 10.0841 2.4753 10.3148L3.85391 11.7637C3.95529 11.6673 4.13792 11.532 4.43092 11.3387C4.77065 11.1145 4.98784 10.9838 5.41466 10.7041C6.1281 10.2365 6.98917 9.62979 7.63862 8.86828C8.30252 8.08984 8.81385 7.06518 8.64163 5.81352C8.47471 4.60039 7.69331 3.39627 6.30101 2.16541L4.97634 3.66383ZM2.43248 10.3581C2.38573 10.4083 2.34105 10.4652 2.31828 10.4943C2.28879 10.532 2.25724 10.5736 2.22979 10.6099C2.20012 10.6492 2.17646 10.6807 2.1544 10.7097C2.12891 10.7432 2.12346 10.7495 2.12886 10.7431L3.65758 12.0327C3.68934 11.9951 3.724 11.9497 3.74561 11.9214C3.77065 11.8885 3.80106 11.848 3.82566 11.8154C3.85249 11.7799 3.87541 11.7498 3.89381 11.7263C3.90292 11.7146 3.90873 11.7074 3.91175 11.7037C3.91656 11.6979 3.91025 11.7059 3.89674 11.7204L2.43248 10.3581ZM3.39279 15.9289C3.46848 16.0276 3.53463 16.2104 3.51586 16.5374C3.49728 16.861 3.39914 17.2282 3.2654 17.57C3.13031 17.9152 2.98621 18.1657 2.92647 18.2505C2.9101 18.2738 2.92286 18.2518 2.96192 18.2127C2.97648 18.1981 3.03942 18.1349 3.14255 18.0752C3.18285 18.0518 3.58515 17.8115 4.06428 18.0447C4.57175 18.2917 4.61182 18.79 4.61657 18.8522C4.62634 18.9802 4.60665 19.0742 4.60289 19.0926C4.59212 19.1454 4.58205 19.1629 4.59879 19.1199L2.7351 18.3942C2.70504 18.4714 2.66664 18.5783 2.64333 18.6925C2.63331 18.7415 2.6113 18.8592 2.62236 19.0043C2.6284 19.0835 2.67339 19.5921 3.18906 19.8431C3.6764 20.0802 4.09018 19.8376 4.14491 19.8059C4.26247 19.7378 4.34281 19.6603 4.37738 19.6256C4.45645 19.5464 4.51971 19.4617 4.56166 19.4021C4.7352 19.1557 4.94952 18.7546 5.12786 18.2988C5.30755 17.8397 5.47785 17.2568 5.51257 16.652C5.5471 16.0506 5.4514 15.3268 4.97997 14.712L3.39279 15.9289ZM4.59879 19.1199C4.81456 18.5658 4.71093 17.9872 4.58915 17.5792C4.45789 17.1394 4.24441 16.7002 4.02682 16.3183C3.60297 15.5745 3.05544 14.8643 2.76593 14.592L1.3957 16.0489C1.39552 16.0487 1.40596 16.0587 1.42821 16.083C1.44929 16.106 1.47619 16.1367 1.50843 16.1751C1.57301 16.252 1.65224 16.352 1.73996 16.4702C1.9162 16.7077 2.11458 17.0022 2.28913 17.3085C2.46695 17.6206 2.60154 17.9128 2.6727 18.1512C2.75334 18.4214 2.70648 18.4676 2.7351 18.3942L4.59879 19.1199ZM13.1618 11.0688C12.8143 11.2496 12.6045 11.4368 12.4507 11.5928C12.287 11.7589 12.3355 11.7089 12.3598 11.6951C12.402 11.671 12.3766 11.7047 12.1333 11.7285C11.8889 11.7525 11.499 11.7604 10.8613 11.7354L10.7829 13.7339C11.4499 13.76 11.9472 13.7563 12.3284 13.719C12.7106 13.6815 13.0492 13.6042 13.3501 13.4327C13.6331 13.2714 13.8348 13.0377 13.8752 12.9967C13.9255 12.9457 13.9706 12.9025 14.0849 12.843L13.1618 11.0688ZM13.6234 11.9559C12.6426 12.1512 12.6426 12.1509 12.6425 12.1507C12.6425 12.1506 12.6425 12.1504 12.6424 12.1502C12.6424 12.1499 12.6423 12.1497 12.6423 12.1495C12.6422 12.149 12.6421 12.1487 12.6421 12.1485C12.642 12.1481 12.642 12.1481 12.6421 12.1486C12.6423 12.1497 12.6429 12.1526 12.6437 12.1572C12.6454 12.1664 12.6482 12.1827 12.6519 12.2053C12.6591 12.2505 12.6695 12.3205 12.6798 12.4102C12.7006 12.5909 12.7206 12.8444 12.7174 13.131C12.7104 13.7349 12.6012 14.3452 12.321 14.7683L13.9885 15.8725C14.5836 14.9739 14.7086 13.9019 14.7172 13.154C14.7217 12.7647 14.6947 12.4249 14.6667 12.1813C14.6525 12.0588 14.638 11.959 14.6264 11.8873C14.6206 11.8514 14.6156 11.8225 14.6118 11.8012C14.6098 11.7905 14.6082 11.7818 14.6069 11.775C14.6063 11.7716 14.6057 11.7687 14.6052 11.7663C14.605 11.7651 14.6048 11.7641 14.6046 11.7631C14.6045 11.7626 14.6044 11.7622 14.6043 11.7618C14.6043 11.7616 14.6043 11.7613 14.6042 11.7612C14.6042 11.7609 14.6041 11.7607 13.6234 11.9559ZM12.321 14.7683C11.884 15.4282 11.9222 16.2117 12.0307 16.7787C12.1459 17.3807 12.3857 17.9757 12.6193 18.4471C12.848 18.9085 13.1121 19.3339 13.3233 19.5818C13.3699 19.6364 13.4658 19.7452 13.596 19.8364C13.6458 19.8713 13.8187 19.9905 14.0725 20.0224C14.2186 20.0408 14.4234 20.0337 14.6376 19.9315C14.8579 19.8263 15.0039 19.6606 15.09 19.5037C15.2353 19.2392 15.2194 18.9898 15.2152 18.9261C15.2086 18.8259 15.1895 18.7416 15.1758 18.6885C15.1475 18.579 15.1062 18.4695 15.0662 18.3732L13.2194 19.1409C13.2443 19.2008 13.2452 19.2114 13.2395 19.1892C13.2371 19.1799 13.2244 19.131 13.2196 19.0585C13.2172 19.0225 13.1986 18.793 13.337 18.541C13.4197 18.3903 13.5613 18.229 13.7761 18.1265C13.9848 18.0269 14.1832 18.0206 14.3218 18.038C14.5608 18.068 14.7151 18.1785 14.7429 18.1979C14.8291 18.2582 14.8673 18.31 14.8455 18.2844C14.7834 18.2116 14.6039 17.9476 14.4113 17.5589C14.2236 17.1802 14.0642 16.7643 13.9951 16.4028C13.9609 16.2242 13.9542 16.0866 13.9631 15.9893C13.9718 15.8938 13.9923 15.8668 13.9885 15.8725L12.321 14.7683ZM14.3374 14.5015C13.6508 14.9825 13.2258 15.7764 13.038 16.5633C12.8466 17.3654 12.8671 18.2935 13.2194 19.1409L15.0662 18.3732C14.899 17.971 14.8751 17.4812 14.9834 17.0276C15.0953 16.5587 15.3142 16.2591 15.4851 16.1394L14.3374 14.5015ZM6.30101 2.16541C5.87293 1.78698 5.563 1.48613 5.35039 1.25475C5.24439 1.13937 5.16928 1.04852 5.11837 0.98006C5.06473 0.907924 5.05224 0.879689 5.05644 0.888767C5.05925 0.894848 5.07193 0.923029 5.08328 0.96996C5.09443 1.0161 5.10873 1.09865 5.09965 1.20591C5.07695 1.47409 4.92226 1.73018 4.679 1.87382C4.49672 1.98144 4.34589 1.97761 4.33994 1.9776C4.31668 1.97756 4.32997 1.97501 4.39366 1.98897C4.67382 2.05036 5.22002 2.26443 5.98403 2.65553C6.72386 3.03426 7.60185 3.54441 8.52231 4.14464C10.374 5.35211 12.3313 6.88078 13.666 8.37713C14.3356 9.12783 14.8056 9.8232 15.0467 10.4246C15.2849 11.0185 15.2641 11.4202 15.1271 11.708L16.9328 12.5678C17.3897 11.6084 17.2682 10.5908 16.9031 9.68026C16.541 8.77719 15.9052 7.88292 15.1585 7.04582C13.6606 5.36656 11.5433 3.72695 9.61475 2.46935C8.64507 1.83703 7.7065 1.29046 6.89538 0.875238C6.10844 0.472395 5.3693 0.15531 4.82177 0.0353255C4.67854 0.00393772 4.5135 -0.0220924 4.34353 -0.0223972C4.19087 -0.0226709 3.92492 -0.00354582 3.66213 0.151618C3.33836 0.342785 3.13777 0.670991 3.10677 1.03723C3.08155 1.33523 3.17395 1.58282 3.2409 1.72771C3.3786 2.0257 3.6179 2.3252 3.87767 2.60792C4.15373 2.90837 4.51889 3.25943 4.97634 3.66383L6.30101 2.16541ZM3.45117 12.3721C3.45262 12.3701 3.45382 12.3685 3.4548 12.3673L1.86893 11.1486C1.85867 11.162 1.84866 11.1753 1.83889 11.1886L3.45117 12.3721ZM3.66627 13.1105C3.56106 13.0381 3.46405 12.9322 3.39907 12.797L5.2017 11.9306C5.10776 11.7352 4.96667 11.5776 4.79985 11.4628L3.66627 13.1105ZM3.50725 12.9729C3.51573 12.9839 3.49163 12.9549 3.47983 12.8913C3.47451 12.8626 3.47361 12.8366 3.47483 12.816C3.47601 12.7962 3.47888 12.7854 3.47875 12.7859C3.46267 12.8474 3.42555 12.9049 3.2552 13.2155C3.12449 13.4539 2.91287 13.856 2.87618 14.3533C2.83587 14.8997 3.01026 15.43 3.39279 15.9289L4.97997 14.712C4.9084 14.6186 4.88448 14.5605 4.87658 14.5364C4.86979 14.5157 4.87027 14.507 4.87076 14.5005C4.87327 14.4665 4.89133 14.3915 5.00887 14.1771C5.08676 14.0351 5.31644 13.6641 5.4138 13.2914C5.54232 12.7995 5.47879 12.2565 5.09352 11.7548L3.50725 12.9729ZM3.65002 13.1234C4.36234 13.7333 5.00859 14.1274 5.66596 14.3109C6.34807 14.5013 6.93939 14.4361 7.46869 14.3117C8.51371 14.0659 9.22706 13.6728 10.7829 13.7339L10.8613 11.7354C8.94333 11.6601 7.70413 12.2018 7.0109 12.3648C6.67107 12.4447 6.44684 12.4524 6.2036 12.3845C5.93562 12.3097 5.54673 12.1145 4.95076 11.6042L3.65002 13.1234ZM2.76593 14.592C2.92746 14.7439 2.95182 14.8923 2.94228 14.8548C2.93995 14.8456 2.93 14.7958 2.92577 14.6935C2.91745 14.4923 2.93545 14.205 2.98528 13.8774C3.03451 13.5537 3.10992 13.2226 3.20176 12.9372C3.29867 12.636 3.39305 12.4513 3.45117 12.3721L1.8389 11.1886C1.59531 11.5205 1.42164 11.9399 1.29786 12.3247C1.16901 12.7252 1.07108 13.162 1.00802 13.5766C0.945553 13.9874 0.912305 14.409 0.927479 14.7761C0.934993 14.9578 0.955476 15.157 1.00397 15.3477C1.04526 15.51 1.14084 15.8092 1.3957 16.0489L2.76593 14.592ZM17.0132 12.3176C17.0121 12.3239 17.008 12.3466 17.0009 12.3756C16.9977 12.3885 16.9895 12.421 16.9757 12.4614C16.9688 12.4815 16.9557 12.5177 16.9353 12.5612C16.9205 12.5927 16.8742 12.6898 16.7846 12.7928C16.7252 12.8611 16.4225 13.1914 15.9102 13.1296C15.4093 13.0693 15.1927 12.6899 15.1531 12.6177C15.0896 12.502 15.0648 12.4011 15.0569 12.3677C15.046 12.3219 15.0407 12.2847 15.038 12.2639C15.0292 12.1954 15.03 12.1399 15.03 12.1379H17.03C17.03 12.1351 17.0306 12.0791 17.0218 12.0102C17.0192 11.9893 17.0138 11.952 17.0029 11.9062C16.995 11.8727 16.9701 11.7717 16.9067 11.656C16.8671 11.5838 16.6504 11.2044 16.1495 11.144C15.6372 11.0823 15.3344 11.4125 15.275 11.4809C15.1854 11.584 15.139 11.6811 15.1243 11.7126C15.1038 11.7562 15.0907 11.7924 15.0838 11.8126C15.0699 11.8532 15.0617 11.8859 15.0584 11.8991C15.0512 11.9286 15.0469 11.9521 15.0456 11.9594L17.0132 12.3176ZM15.4851 16.1394C15.9199 15.8347 16.1847 15.3634 16.3494 14.9947C16.5266 14.5979 16.656 14.1609 16.75 13.7743C16.9295 13.0367 17.0275 12.2392 17.0132 12.3178L15.0456 11.9592C15.0177 12.1122 14.9742 12.6131 14.8067 13.3015C14.7273 13.628 14.6318 13.936 14.5233 14.179C14.4021 14.4502 14.3201 14.5136 14.3374 14.5015L15.4851 16.1394ZM1.95827 11.0535C1.96412 11.048 2.04128 10.9719 2.16073 10.9065C2.19693 10.8866 2.26061 10.8546 2.34509 10.8284C2.4202 10.8052 2.58167 10.7643 2.78631 10.7946C3.02611 10.83 3.28661 10.9605 3.46266 11.2154C3.61549 11.4367 3.63757 11.6558 3.63958 11.7649C3.64333 11.9681 3.58213 12.1188 3.57164 12.1456C3.5503 12.2003 3.52857 12.2415 3.51686 12.2627C3.49241 12.3071 3.47002 12.3394 3.45933 12.3544C3.41748 12.4131 3.38252 12.4472 3.3678 12.4609L2.00369 10.9983C1.94826 11.05 1.88593 11.116 1.83039 11.194C1.81628 11.2138 1.79133 11.2501 1.76517 11.2975C1.75261 11.3203 1.73024 11.3628 1.70848 11.4186C1.69757 11.4465 1.63617 11.598 1.63992 11.8018C1.64194 11.9112 1.66408 12.1306 1.81703 12.352C1.99318 12.6071 2.25386 12.7376 2.49388 12.7731C2.69874 12.8034 2.86049 12.7625 2.93593 12.7392C3.02074 12.7129 3.08481 12.6807 3.12145 12.6606C3.24266 12.5942 3.32245 12.5161 3.3318 12.5072L1.95827 11.0535ZM3.4905 12.3233C3.49374 12.3188 3.4967 12.3147 3.49928 12.3111L1.87221 11.1481L1.87278 11.1473L3.4905 12.3233ZM2.07289 10.816C2.08518 10.7984 2.10375 10.773 2.12828 10.7439C2.15525 10.7119 2.18091 10.6855 2.20284 10.6646C2.21162 10.6563 2.21876 10.6498 2.21933 10.6493C2.22168 10.6471 2.2165 10.6518 2.21165 10.6563C2.1978 10.6692 2.18055 10.686 2.16148 10.7064C2.12679 10.7435 2.102 10.7757 2.08905 10.793C2.0756 10.8111 2.06517 10.8263 2.05919 10.8352C2.04727 10.8528 2.03652 10.8698 2.02865 10.8824C2.0198 10.8965 2.00943 10.9134 1.99713 10.9336L3.70569 11.9732C3.71552 11.9571 3.72116 11.9479 3.72395 11.9435C3.7253 11.9413 3.72541 11.9412 3.72458 11.9425C3.72391 11.9435 3.72115 11.9478 3.71692 11.9541C3.71473 11.9573 3.71163 11.9618 3.70781 11.9673C3.70404 11.9727 3.69877 11.98 3.69227 11.9888C3.68583 11.9974 3.67687 12.0091 3.66574 12.0227C3.65437 12.0366 3.6399 12.0536 3.62241 12.0723C3.61362 12.0817 3.60473 12.0908 3.59576 12.0997C3.58677 12.1086 3.57895 12.116 3.57296 12.1216C3.57012 12.1242 3.56784 12.1263 3.56657 12.1274C3.56594 12.128 3.56546 12.1285 3.56532 12.1286C3.56491 12.129 3.56546 12.1285 3.56557 12.1284C3.56609 12.1279 3.5682 12.126 3.57087 12.1235C3.57366 12.1209 3.57762 12.1172 3.58232 12.1128C3.59209 12.1034 3.60431 12.0914 3.61798 12.077C3.63168 12.0626 3.64483 12.0479 3.65744 12.0329C3.68217 12.0036 3.70097 11.9779 3.71355 11.9598L2.07289 10.816ZM1.99713 10.9336C1.99114 10.9434 1.94676 11.0175 1.90825 11.0817C1.888 11.1155 1.86804 11.1488 1.85309 11.1737C1.84561 11.1862 1.83945 11.1964 1.83517 11.2036C1.83301 11.2072 1.83142 11.2098 1.83041 11.2115C1.82987 11.2124 1.82967 11.2127 1.82969 11.2127C1.8297 11.2127 1.82978 11.2126 1.82989 11.2124C1.82999 11.2122 1.83022 11.2118 1.83054 11.2113C1.83072 11.211 1.83157 11.2096 1.83268 11.2078C1.83311 11.2071 1.83458 11.2047 1.83648 11.2016C1.83756 11.1999 1.84045 11.1953 1.84227 11.1924C1.84592 11.1867 1.86076 11.1644 1.87225 11.148L3.49924 12.3112C3.51073 12.2947 3.52557 12.2724 3.52922 12.2667C3.53105 12.2639 3.53394 12.2593 3.53503 12.2575C3.53694 12.2544 3.53842 12.252 3.53888 12.2513C3.54004 12.2494 3.54095 12.2479 3.54121 12.2475C3.54191 12.2463 3.54251 12.2453 3.54277 12.2449C3.54341 12.2438 3.54412 12.2426 3.54475 12.2416C3.5461 12.2393 3.54794 12.2363 3.55015 12.2326C3.55459 12.2252 3.56088 12.2147 3.56837 12.2022C3.58336 12.1772 3.6034 12.1438 3.62359 12.1101C3.64381 12.0764 3.6642 12.0424 3.67998 12.016C3.69735 11.9871 3.70599 11.9727 3.70569 11.9732L1.99713 10.9336ZM3.53854 12.239C3.53216 12.2507 3.52682 12.2598 3.52675 12.2599C3.5253 12.2624 3.5242 12.2643 3.52382 12.2649C3.52296 12.2664 3.52253 12.2671 3.52286 12.2665C3.52337 12.2657 3.52464 12.2636 3.52681 12.2599C3.53104 12.2529 3.53732 12.2425 3.54513 12.2297C3.56072 12.204 3.58141 12.17 3.60246 12.1357C3.62387 12.1009 3.64403 12.0684 3.65911 12.0445C3.66691 12.0322 3.67112 12.0257 3.67242 12.0237C3.67319 12.0225 3.67086 12.0261 3.66644 12.0325C3.66419 12.0357 3.65974 12.042 3.65369 12.0502C3.64884 12.0568 3.63641 12.0735 3.61905 12.0943L2.08377 10.8125C2.05256 10.8499 2.02967 10.8831 2.02553 10.889C2.01646 10.902 2.00849 10.914 2.00279 10.9226C1.99114 10.9403 1.97906 10.9592 1.96842 10.9761C1.94663 11.0105 1.92134 11.0514 1.89834 11.0889C1.86367 11.1453 1.80229 11.2457 1.78518 11.2769L3.53854 12.239Z" fill="#EEF0FF" mask="url(#path-1-outside-1_13_24)"/>
</g>
<path id="Vector 15" d="M8.9195 9.36234L11.8528 9.3623C12.3789 9.3623 11.8528 10.3206 10.6794 10.3206C9.50613 10.3206 8.33285 9.36237 8.9195 9.36234Z" fill="#EEF0FF" stroke="#EEF0FF" stroke-linecap="round"/>
</g>
<defs>
<radialGradient id="paint0_radial_13_24" cx="0" cy="0" r="1" gradientUnits="userSpaceOnUse" gradientTransform="translate(9.07622 10.004) rotate(90) scale(9.0264 7.15239)">
<stop stop-color="#505D84"/>
<stop offset="1" stop-color="#212F53"/>
</radialGradient>
<clipPath id="clip0_13_24">
<rect width="17.5651" height="19.1651" fill="white" transform="translate(0.420074 0.258911)"/>
</clipPath>
</defs>
</svg>